<?xml version="1.0" encoding="iso-8859-1"?>
<!-- Generator: Adobe Illustrator 21.0.0, SVG Export Plug-In . SVG Version: 6.00 Build 0)  -->
<svg version="1.1" id="Capa_1" xmlns="http://www.w3.org/2000/svg" xmlns:xlink="http://www.w3.org/1999/xlink" x="0px" y="0px"
	 viewBox="0 0 512 512" style="enable-background:new 0 0 512 512;" xml:space="preserve">
<g>
	<g>
		<path d="M401.476,376.252c-6.827-3.166-13.32-6.34-19.567-9.523c19.735-30.87,26.54-68.263,18.944-104.107
			c-12.962-57.011-11.947-64.708-7.194-101.675c0.853-6.741,1.869-14.404,2.91-23.45c3.209-27.725,1.408-67.081-25.404-97.169
			C347.307,13.577,308.574,0,256,0s-91.307,13.577-115.2,40.346c-26.812,30.089-28.612,69.444-25.404,97.169
			c1.041,9.045,2.039,16.708,2.91,23.45c4.779,36.966,5.768,44.663-7.194,101.666c-7.593,35.844-0.789,73.235,18.944,104.107
			c-6.229,3.174-12.672,6.349-19.524,9.498c-18.953,8.619-50.799,36.582-50.799,127.232c0,4.713,3.82,8.533,8.533,8.533h375.467
			c4.713,0,8.533-3.82,8.533-8.533C452.267,412.817,420.42,384.853,401.476,376.252z M127.787,266.428
			c13.653-59.981,12.331-70.076,7.475-107.648c-0.853-6.682-1.843-14.268-2.884-23.228c-2.799-24.252-1.408-58.487,21.197-83.857
			C174.08,28.715,208.512,17.067,256,17.067s81.92,11.648,102.4,34.628c22.605,25.37,23.996,59.605,21.197,83.857
			c-1.041,8.96-2.022,16.546-2.884,23.228c-4.855,37.547-6.17,47.667,7.475,107.657c6.626,31.842,0.37,65.013-17.399,92.254
			c-5.026-2.807-9.873-5.615-14.345-8.405c-6.535-4.066-12.346-9.194-17.195-15.172c-8.096-9.809-13.402-21.617-15.36-34.185
			c-0.725-4.378-1.348-8.491-1.937-12.39c17.894-17.766,31.915-39.364,31.915-58.138c0.42-22.297,3.195-44.487,8.277-66.202
			c0.564-2.258,0.181-4.648-1.06-6.616c-1.241-1.969-3.231-3.345-5.511-3.811c-26.308-5.274-46.933-39.253-62.012-64.06
			c-5.349-9.793-11.704-19.001-18.961-27.477c-7.774-7.713-18.995-10.837-29.636-8.252c-20.881,4.267-41.028,24.892-52.591,53.76
			c-14.37,35.934-30.72,47.095-30.771,47.155c-3.107,1.969-4.603,5.707-3.712,9.276c5.081,21.722,7.844,43.922,8.243,66.227
			c0,18.773,14.02,40.371,31.923,58.138c-0.589,3.908-1.212,8.03-1.954,12.459c-1.967,12.549-7.272,24.339-15.36,34.133
			c-4.856,5.969-10.669,11.091-17.203,15.155c-4.454,2.782-9.301,5.581-14.31,8.38C127.45,331.434,121.178,298.27,127.787,266.428z
			 M256,341.333c-19.493,0.227-38.911-2.448-57.617-7.936c5.276-9.154,8.854-19.185,10.564-29.611
			c0.102-0.614,0.188-1.178,0.29-1.775c16.896,13.252,34.739,22.255,46.763,22.255c12.023,0,29.867-9.003,46.763-22.298
			c0.094,0.572,0.179,1.118,0.273,1.707c1.707,10.467,5.292,20.539,10.581,29.73C294.911,338.89,275.492,341.562,256,341.333z
			 M264.533,366.933c0,4.713-3.82,8.533-8.533,8.533c-4.713,0-8.533-3.82-8.533-8.533s3.82-8.533,8.533-8.533
			C260.713,358.4,264.533,362.221,264.533,366.933z M256,307.2c-20.693,0-76.8-47.607-76.8-76.8
			c-0.329-21.865-2.862-43.642-7.561-64.998c14.561-14.443,25.687-31.977,32.555-51.302c11.307-28.262,28.706-41.045,40.175-43.401
			c5.015-1.41,10.402-0.037,14.131,3.601c6.21,7.571,11.715,15.694,16.444,24.269c15.275,25.156,35.712,58.82,64.853,69.547
			c-4.351,20.485-6.695,41.345-6.997,62.285C332.8,259.593,276.693,307.2,256,307.2z M375.467,494.933H136.533v-46.737
			c9.071-6.033,34.799-21.53,59.733-21.53c17.266,0.038,34.463,2.201,51.2,6.443V460.8c0,4.713,3.82,8.533,8.533,8.533
			c4.713,0,8.533-3.82,8.533-8.533v-27.699c16.736-4.248,33.933-6.409,51.2-6.434c24.934,0,50.662,15.497,59.733,21.53V494.933z
			 M392.533,494.933v-51.2c0-0.213-0.102-0.384-0.119-0.589c-0.053-0.579-0.167-1.151-0.341-1.707
			c-0.123-0.514-0.298-1.014-0.521-1.493c-0.242-0.459-0.528-0.893-0.853-1.297c-0.343-0.477-0.735-0.917-1.169-1.314
			c-0.154-0.128-0.23-0.316-0.393-0.435c-1.485-1.118-36.83-27.307-73.387-27.307c-20.189-0.016-40.285,2.723-59.733,8.141
			c-19.454-5.416-39.556-8.152-59.75-8.132c-36.557,0-71.902,26.189-73.387,27.307c-0.162,0.12-0.239,0.307-0.393,0.435
			c-0.434,0.397-0.826,0.837-1.169,1.314c-0.326,0.404-0.612,0.838-0.853,1.297c-0.223,0.479-0.397,0.979-0.521,1.493
			c-0.174,0.555-0.288,1.127-0.341,1.707c0,0.205-0.12,0.375-0.12,0.589v51.2H76.902c1.86-77.073,28.868-97.792,40.755-103.185
			c17.489-7.91,34.466-16.904,50.833-26.931c7.357-4.6,13.974-10.288,19.627-16.87c14.293,4.902,29.137,8.023,44.194,9.293
			c-1.266,3.072-1.916,6.363-1.911,9.685c0,14.138,11.461,25.6,25.6,25.6c14.138,0,25.6-11.461,25.6-25.6
			c-0.002-3.327-0.661-6.621-1.937-9.694c15.057-1.268,29.901-4.39,44.194-9.293c5.655,6.573,12.272,12.252,19.627,16.845
			c16.395,10.044,33.401,19.056,50.918,26.982c11.844,5.367,38.852,26.086,40.713,103.159H392.533z"/>
	</g>
</g>
<g>
</g>
<g>
</g>
<g>
</g>
<g>
</g>
<g>
</g>
<g>
</g>
<g>
</g>
<g>
</g>
<g>
</g>
<g>
</g>
<g>
</g>
<g>
</g>
<g>
</g>
<g>
</g>
<g>
</g>
</svg>
