<?xml version="1.0" encoding="iso-8859-1"?>
<!-- Generator: Adobe Illustrator 19.0.0, SVG Export Plug-In . SVG Version: 6.00 Build 0)  -->
<svg version="1.1" id="Capa_1" xmlns="http://www.w3.org/2000/svg" xmlns:xlink="http://www.w3.org/1999/xlink" x="0px" y="0px"
	 viewBox="0 0 512 512" style="enable-background:new 0 0 512 512;" xml:space="preserve">
<g>
	<g>
		<path d="M362.308,109.401C347.315,63.143,304.594,32.063,256,32.063c-48.595,0-91.315,31.081-106.307,77.339
			c-0.741,2.287-0.343,4.791,1.071,6.736c1.414,1.944,3.673,3.095,6.078,3.095h198.316
			C360.173,119.233,363.857,114.18,362.308,109.401z M167.77,104.203c15.462-34.551,49.715-57.112,88.23-57.112
			c38.514,0,72.767,22.56,88.231,57.112H167.77z"/>
	</g>
</g>
<g>
	<g>
		<path d="M304.094,264.517c-12.983,0-23.546,10.563-23.546,23.546s10.563,23.546,23.546,23.546s23.546-10.563,23.546-23.546
			S317.077,264.517,304.094,264.517z M304.094,296.579c-4.696,0-8.517-3.82-8.517-8.517s3.82-8.517,8.517-8.517
			s8.517,3.82,8.517,8.517S308.79,296.579,304.094,296.579z"/>
	</g>
</g>
<g>
	<g>
		<path d="M207.906,264.517c-12.983,0-23.546,10.563-23.546,23.546s10.563,23.546,23.546,23.546s23.546-10.563,23.546-23.546
			S220.889,264.517,207.906,264.517z M207.906,296.579c-4.696,0-8.517-3.82-8.517-8.517s3.82-8.517,8.517-8.517
			s8.517,3.82,8.517,8.517S212.602,296.579,207.906,296.579z"/>
	</g>
</g>
<g>
	<g>
		<path d="M504.485,240.47h-1.053c5.357-6.752,8.568-15.28,8.568-24.548c0-21.823-17.755-39.577-39.577-39.577
			c-21.823,0-39.577,17.755-39.577,39.577c0,9.268,3.211,17.796,8.568,24.548h-1.053c-4.151,0-7.515,3.364-7.515,7.515
			c0,4.151,3.364,7.515,7.515,7.515h8.517v8.626c-0.876,0.365-1.696,0.899-2.41,1.609c-6.666,6.639-13.77,12.978-21.111,18.844
			c-0.74,0.591-1.332,1.298-1.784,2.069l-5.671-7.76c-2.427-3.319-7.247-4.055-10.552-1.597c-2.397,1.782-4.929,3.595-7.568,5.422
			v-138.93C399.781,64.5,335.281,0,256,0S112.219,64.5,112.219,143.781v138.623c-1.896-1.314-3.792-2.659-5.674-4.03
			c-3.263-2.375-7.819-1.752-10.321,1.417l-5.558,7.036c-9.152-7.06-17.892-14.631-26.037-22.589
			c-0.462-0.451-0.971-0.822-1.505-1.13v-7.608h8.517c4.15,0,7.515-3.364,7.515-7.515c0-4.151-3.365-7.515-7.515-7.515h-1.053
			c5.355-6.752,8.567-15.28,8.567-24.548c0-21.823-17.755-39.577-39.577-39.577C17.755,176.344,0,194.099,0,215.922
			c0,9.268,3.211,17.796,8.568,24.548H7.515c-4.15,0-7.515,3.364-7.515,7.515c0,4.151,3.365,7.515,7.515,7.515h8.517v248.986
			c0,4.151,3.365,7.515,7.515,7.515h32.063c4.15,0,7.515-3.364,7.515-7.515V283.417c5.855,5.275,11.947,10.354,18.227,15.204
			l-5.013,6.345c-2.599,3.29-1.93,8.234,1.447,10.713c4.575,3.363,9.268,6.631,13.948,9.714c6.751,4.448,13.583,8.595,20.487,12.459
			V440.36c0,4.151,3.365,7.515,7.515,7.515h272.532c4.151,0,7.515-3.364,7.515-7.515V338.302
			c8.377-4.672,16.628-9.767,24.742-15.302c3.506-2.391,7.029-4.906,10.768-7.689c3.309-2.462,4.015-7.132,1.581-10.461
			l-5.181-7.091c1.078-0.241,2.122-0.702,3.043-1.438c4.835-3.862,9.554-7.937,14.142-12.144v220.308
			c0,4.151,3.364,7.515,7.515,7.515h32.063c4.151,0,7.515-3.364,7.515-7.515V255.499h8.517c4.151,0,7.515-3.364,7.515-7.515
			C511.999,243.833,508.636,240.47,504.485,240.47z M48.094,496.971H31.061V255.499h17.033V496.971z M39.577,240.47
			c-13.535,0-24.548-11.012-24.548-24.548c0-13.536,11.013-24.548,24.548-24.548c13.535,0,24.548,11.012,24.548,24.548
			C64.125,229.458,53.113,240.47,39.577,240.47z M256,15.029c68.471,0,124.621,53.727,128.526,121.237h-48.369
			c-4.151,0-7.515,3.364-7.515,7.515s3.364,7.515,7.515,7.515h48.595V292.41c-29.936,17.947-71.032,34.751-121.237,36.234V151.295
			h45.589c4.151,0,7.515-3.364,7.515-7.515s-3.364-7.515-7.515-7.515h-181.63C131.379,68.756,187.529,15.029,256,15.029z
			 M127.249,151.295h121.237v177.335c-42.509-1.317-83.203-13.564-121.237-36.509V151.295z M248.485,432.845H127.249v-87.103
			c38.433,18.872,79.042,28.932,121.237,30V432.845z M384.751,432.845H263.515V375.75c0.393-0.01,0.787-0.014,1.179-0.025
			c42.062-1.212,82.278-11.142,120.057-29.571V432.845z M416.055,310.584c-46.46,31.692-97.531,48.554-151.794,50.118
			c-2.751,0.079-5.527,0.119-8.246,0.119c-55.204,0-107.694-16.141-156.015-47.977c-2.332-1.536-4.666-3.12-6.988-4.74
			l10.579-13.391c1.93,1.338,3.862,2.644,5.781,3.908c47.742,31.454,99.688,46.604,154.399,45.056
			c64.127-1.849,114.154-27.19,146.407-49.883l10.117,13.843C418.867,308.647,417.459,309.626,416.055,310.584z M480.939,496.971
			h-17.033V255.499h17.033V496.971z M472.423,240.47c-13.536,0-24.548-11.012-24.548-24.548c0-13.536,11.011-24.548,24.548-24.548
			c13.536,0,24.548,11.012,24.548,24.548C496.971,229.458,485.959,240.47,472.423,240.47z"/>
	</g>
</g>
<g>
</g>
<g>
</g>
<g>
</g>
<g>
</g>
<g>
</g>
<g>
</g>
<g>
</g>
<g>
</g>
<g>
</g>
<g>
</g>
<g>
</g>
<g>
</g>
<g>
</g>
<g>
</g>
<g>
</g>
</svg>
