<?xml version="1.0" encoding="iso-8859-1"?>
<!-- Generator: Adobe Illustrator 21.0.0, SVG Export Plug-In . SVG Version: 6.00 Build 0)  -->
<svg version="1.1" id="Capa_1" xmlns="http://www.w3.org/2000/svg" xmlns:xlink="http://www.w3.org/1999/xlink" x="0px" y="0px"
	 viewBox="0 0 512 512" style="enable-background:new 0 0 512 512;" xml:space="preserve">
<g>
	<g>
		<path d="M454.707,401.502c-28.021-9.001-55.392-19.912-81.92-32.657c-0.213-0.171-0.375-0.418-0.597-0.563l-19.43-25.907
			c-3.025-4.034-7.687-6.514-12.723-6.767c-2.56-16.563-4.702-33.118-5.973-43.52c11.842-11.657,17.669-28.109,15.804-44.621
			c1.566-19.405,4.339-38.693,8.303-57.754c1.323-4.642,17.297-61.628,17.297-95.846C375.467,54.895,338.398,0,256,0
			S136.533,54.895,136.533,93.867c0,34.219,15.974,91.204,17.297,95.846c3.964,19.06,6.737,38.349,8.303,57.754
			c-1.865,16.511,3.962,32.964,15.804,44.621c-1.289,10.402-3.413,26.948-5.973,43.52c-5.037,0.256-9.699,2.739-12.723,6.775
			l-19.746,26.325c-26.605,12.81-54.063,23.77-82.176,32.802C24.193,412.567,1.369,442.972,0,477.867v25.6
			C0,508.18,3.82,512,8.533,512h494.933c4.713,0,8.533-3.82,8.533-8.533v-25.6C510.638,442.975,487.825,412.568,454.707,401.502z
			 M337.621,353.579l0.213-0.128l1.314-0.794l16.521,22.007l-48.998,48.99l-6.417-5.35l-29.534-24.619L337.621,353.579z
			 M283.025,426.146l-14.063,17.587h-25.924l-14.063-17.57L256,403.627L283.025,426.146z M188.22,341.914
			c1.929-11.947,3.618-24.132,4.949-34.278l32.23,32.222c6.41,6.377,15.073,9.973,24.115,10.01h12.971
			c9.045-0.034,17.712-3.63,24.124-10.01l32.222-32.222c1.331,10.146,3.021,22.323,4.949,34.278L256,382.583L188.22,341.914z
			 M164.002,160.7c-5.705-21.871-9.19-44.262-10.402-66.833c0-31.889,31.77-76.8,102.4-76.8c69.854,0,102.4,45.824,102.4,76.8
			c-1.218,22.576-4.703,44.972-10.402,66.85c-3.9-10.495-6.148-21.532-6.664-32.717c0-42.317-23.202-51.2-42.667-51.2
			c-10.073-0.366-20.1,1.526-29.346,5.538c-8.431,3.993-18.21,3.993-26.641,0c-9.246-4.012-19.273-5.904-29.346-5.538
			c-19.465,0-42.667,8.883-42.667,51.2C170.147,139.179,167.899,150.209,164.002,160.7z M171.051,188.877
			c9.367-19.052,15.028-39.711,16.683-60.877c0-30.003,12.305-34.133,25.6-34.133c7.859-0.372,15.697,1.089,22.895,4.267
			c12.57,5.677,26.974,5.677,39.544,0c7.198-3.178,15.036-4.639,22.895-4.267c13.295,0,25.6,4.13,25.6,34.133
			c1.654,21.166,7.316,41.825,16.683,60.877c-4.028,19.325-6.75,38.899-8.149,58.59c0,16.512,0,22.067-14.566,36.634l-43.691,43.691
			c-3.205,3.189-7.536,4.988-12.058,5.009h-12.971c-4.521-0.021-8.852-1.82-12.058-5.009L193.766,284.1
			c-0.282-0.29-0.478-0.521-0.751-0.802l-0.213-0.213c-13.5-13.773-13.602-19.524-13.602-35.618
			C177.801,227.776,175.079,208.202,171.051,188.877z M172.877,352.606l1.289,0.776l0.273,0.162l66.867,40.107l-29.534,24.619
			l-6.417,5.35l-49.024-48.956L172.877,352.606z M17.067,494.933v-17.067c1.17-27.605,19.348-51.585,45.611-60.169
			c21.009-6.98,39.953-14.026,56.832-21.137l-24.055,33.681c-1.451,2.032-1.94,4.597-1.338,7.02c0.602,2.423,2.236,4.46,4.47,5.576
			l23.543,11.767l-8.695,8.695c-3.331,3.332-3.331,8.734,0,12.066l19.567,19.567H17.067z M157.133,494.933l-25.6-25.6l11.034-11.034
			c1.934-1.94,2.819-4.69,2.38-7.394c-0.439-2.704-2.15-5.032-4.599-6.26l-25.199-12.595l27.119-37.973l33.621,100.855H157.133z
			 M215.714,494.933h-21.828l-29.295-87.893l34.133,34.176c3.118,3.122,8.102,3.351,11.494,0.529l5.606-4.668l13.542,16.896
			L215.714,494.933z M233.711,494.933l11.375-34.133h21.828l11.375,34.133H233.711z M296.286,494.933l-13.653-40.96l13.474-16.879
			l5.606,4.668c3.392,2.822,8.376,2.593,11.494-0.529l34.202-34.193l-29.295,87.893H296.286z M336.111,494.933l33.843-101.547
			l27.605,38.648l-25.199,12.595c-2.449,1.228-4.159,3.556-4.599,6.26c-0.439,2.704,0.446,5.454,2.38,7.394v0.017l11.034,11.034
			l-25.6,25.6H336.111z M494.933,494.933h-115.2l19.567-19.567c3.331-3.332,3.331-8.734,0-12.066l-8.704-8.695l23.552-11.767
			c2.232-1.117,3.864-3.155,4.464-5.578s0.111-4.987-1.341-7.017l-23.757-33.28c16.589,6.946,35.197,13.852,55.825,20.719
			c26.37,8.438,44.611,32.516,45.594,60.186V494.933z"/>
	</g>
</g>
<g>
</g>
<g>
</g>
<g>
</g>
<g>
</g>
<g>
</g>
<g>
</g>
<g>
</g>
<g>
</g>
<g>
</g>
<g>
</g>
<g>
</g>
<g>
</g>
<g>
</g>
<g>
</g>
<g>
</g>
</svg>
