<?xml version="1.0" encoding="utf-8"?>
<!-- Generator: Adobe Illustrator 15.0.0, SVG Export Plug-In . SVG Version: 6.00 Build 0)  -->
<!DOCTYPE svg PUBLIC "-//W3C//DTD SVG 1.1//EN" "http://www.w3.org/Graphics/SVG/1.1/DTD/svg11.dtd">
<svg version="1.1" id="Capa_1" xmlns="http://www.w3.org/2000/svg" xmlns:xlink="http://www.w3.org/1999/xlink" x="0px" y="0px"
	 width="800px" height="600px" viewBox="0 0 800 600" enable-background="new 0 0 800 600" xml:space="preserve">
<polyline points="461.818,260.632 469.06,257.896 472.869,255.967 478.125,260.632 "/>
<path d="M463.398,260.213l11.197-4.583c0,0,13.348-6.163,0-0.504c-13.347,5.659-11.197,21.625-11.197,21.625l12.102-8.375
	l-0.903-12.746"/>
<path stroke="#000000" stroke-miterlimit="10" d="M468,267.333"/>
<path d="M449.5,264.251"/>
<path d="M291.426,183.109c0,18.164-15.522,32.944-34.605,32.944c-19.081,0-34.604-14.777-34.604-32.944
	c0-18.165,15.523-32.943,34.604-32.943C275.904,150.164,291.426,164.941,291.426,183.109z"/>
<path fill="#D7DBF4" d="M271.765,183.109c0,8.239-6.703,14.944-14.943,14.944c-8.24,0-14.943-6.703-14.943-14.944
	c0-8.24,6.703-14.943,14.943-14.943C265.062,168.165,271.765,174.868,271.765,183.109z"/>
<path d="M577.76,183.109c0,18.164-15.521,32.944-34.604,32.944c-19.08,0-34.604-14.777-34.604-32.944
	c0-18.165,15.523-32.943,34.604-32.943C562.237,150.164,577.76,164.941,577.76,183.109z"/>
<path d="M458.207,270.997"/>
<path d="M451.696,281.585"/>
<path fill="#D7DBF4" d="M558.099,183.109c0,8.239-6.703,14.944-14.942,14.944c-8.24,0-14.943-6.703-14.943-14.944
	c0-8.24,6.703-14.943,14.943-14.943C551.396,168.165,558.099,174.868,558.099,183.109z"/>
<g>
	<g>
		<path d="M697.104,348.282c-6.767-14.769-17.047-38.965-28.051-71.149c1.214-3.653,2.723-9.759,2.497-17.185
			c-0.293-9.703-3.653-23.427-17.249-36.022c1.729-9.025,0.678-22.291-10.533-33.312c-4.83-19.554-9.261-39.741-13.174-60.062
			c-4.506-23.403-25.131-40.389-49.039-40.389H218.444c-23.909,0-44.533,16.986-49.04,40.389
			c-3.912,20.32-8.344,40.507-13.174,60.063c-11.216,11.027-12.262,24.301-10.529,33.326c-19.895,18.507-19.034,40.95-14.781,53.269
			c-10.992,32.143-21.261,56.316-28.024,71.073c-3.688,8.05-3.859,17.356-0.469,25.534c3.373,8.137,9.743,14.291,17.937,17.33
			c8.646,3.204,15.288,8.208,22.319,13.503c12.913,9.727,27.548,20.752,55.69,20.752s42.776-11.023,55.691-20.75
			c3.844-2.896,7.522-5.666,11.448-8.106v86.944c0,4.834-3.933,8.767-8.767,8.767s-8.768-3.933-8.768-8.767l-0.11-88.991
			c0-4.854-3.847,10.668-8.7,10.668c-4.854,0-8.867-5.855-8.867-1.001l0.099,79.324c0,14.525,11.818,26.346,26.347,26.346
			c14.529,0,26.346-11.818,26.346-26.346v-94.356c4.657-1.08,9.923-1.693,16.088-1.693c22.591,0,33.647,8.147,46.449,17.582
			c12.962,9.553,27.655,20.382,54.391,20.382c26.738,0,41.422-10.828,54.378-20.384c12.792-9.435,23.841-17.58,46.433-17.58
			c3.593,0,6.879,0.211,9.92,0.598v95.453c0,14.525,11.818,26.346,26.347,26.346c14.529,0,26.348-11.818,26.348-26.346v-67.106
			c9.631,5.162,21.551,9.019,38.19,9.019c28.142,0,42.775-11.024,55.689-20.752c7.031-5.297,13.672-10.299,22.318-13.503
			c8.192-3.038,14.563-9.191,17.938-17.33C700.966,365.639,700.795,356.333,697.104,348.282z M653.464,267.281
			c-52.745-7.94-78.695-34.415-91.446-57.902c0.815-0.578,1.604-1.192,2.361-1.84c17.595,9.908,43.481,21.489,76.063,27.591
			C656.713,244.905,653.842,265.196,653.464,267.281z M632.071,203.777c4.201,4.453,5.334,9.128,5.374,12.798
			c-20.788-4.488-38.422-11.266-52.353-18.024C598.575,200.403,614.719,202.329,632.071,203.777z M186.666,133.877
			c2.916-15.143,16.281-26.134,31.778-26.134h363.114c15.497,0,28.86,10.991,31.777,26.134c3.347,17.383,7.071,34.671,11.095,51.566
			c-18.852-1.792-35.842-4.061-48.819-6.015c-1.708-16.338-15.563-29.118-32.344-29.118c-16.785,0-30.638,12.78-32.344,29.121
			c-25.688,3.866-68.771,9.199-110.923,9.199c-42.105,0-85.136-5.319-110.921-9.199c-0.776-7.534-4.121-14.488-9.617-19.861
			c-3.472-3.394-9.036-3.33-12.429,0.143c-3.393,3.471-3.329,9.036,0.143,12.429c2.903,2.836,4.501,6.633,4.501,10.69
			c0,8.239-6.703,14.944-14.944,14.944c-8.239,0-14.943-6.703-14.943-14.944c0-3.867,1.472-7.535,4.144-10.328
			c3.355-3.508,3.232-9.072-0.275-12.427c-3.506-3.355-9.07-3.231-12.427,0.275c-5.025,5.253-8.095,11.929-8.838,19.076
			c-13.221,1.992-30.134,4.241-48.823,6.015C179.594,168.548,183.318,151.261,186.666,133.877z M558.209,182.833
			c0,8.239-6.703,14.944-14.943,14.944c-8.239,0-14.942-6.703-14.942-14.944c0-8.24,6.703-14.943,14.942-14.943
			C551.506,167.889,558.209,174.592,558.209,182.833z M501.374,198.573c-23.162,11.186-58.171,23.269-101.374,23.269
			c-43.175,0-78.164-12.055-101.376-23.27c28.63,3.948,65.08,7.636,101.376,7.636C436.309,206.21,472.775,202.517,501.374,198.573z
			 M167.928,203.777c17.27-1.441,33.363-3.353,46.963-5.222c-13.907,6.744-31.538,13.527-52.33,18.019
			C162.597,212.894,163.733,208.225,167.928,203.777z M159.558,235.127c32.619-6.109,58.521-17.713,76.063-27.591
			c0.759,0.649,1.548,1.265,2.365,1.843c-12.818,23.651-38.802,49.982-91.45,57.9C146.157,265.195,142.827,247.611,159.558,235.127z
			 M545.858,483.488c0,4.834-3.933,8.768-8.768,8.768c-4.834,0-8.768-3.934-8.768-8.768v-90.351
			c6.399,3.076,11.787,7.123,17.535,11.452V483.488L545.858,483.488z M681.336,367.085c-1.479,3.568-4.253,6.261-7.809,7.579
			c-11.058,4.099-19.054,10.121-26.784,15.945c-12.264,9.234-22.854,17.214-45.114,17.214s-32.851-7.979-45.113-17.214
			c-12.913-9.727-27.55-20.75-55.69-20.75c-28.371,0-43.507,11.162-56.863,21.012c-12.334,9.096-22.989,16.952-43.946,16.952
			c-20.959,0-31.618-7.856-43.963-16.954c-13.362-9.848-28.507-21.01-56.877-21.01c-28.141,0-42.777,11.022-55.691,20.75
			c-12.263,9.234-22.853,17.214-45.114,17.214c-22.261,0-32.851-7.979-45.114-17.214c-7.732-5.824-15.728-11.847-26.784-15.945
			c-3.556-1.318-6.329-4.011-7.808-7.579c-1.523-3.676-1.447-7.859,0.212-11.478c9.74-21.256,19.127-45.005,27.948-70.612
			c30.159-4.208,55.583-14.416,75.625-30.396c13.411-10.692,24.469-24.185,32.282-39.311c0.664,0.041,3.337,0.041,3.999,0.001
			c15.178,29.424,52.486,71.933,141.273,71.933c18.614,0,36.006-1.897,51.693-5.638c58.932-14.053,44.05-33.934,45.803-26.584
			c-1.125-4.721-45.164,8.361-49.881,9.486c-14.353,3.423-30.373,5.159-47.616,5.159c-37.712,0-68.676-8.183-92.033-24.324
			c-16.287-11.253-26.364-24.771-32.474-35.945c0.806-0.572,1.585-1.178,2.335-1.819c27.143,15.345,68.763,31.866,122.173,31.866
			c53.443,0,95.088-16.559,122.173-31.866c0.751,0.641,1.53,1.248,2.338,1.82c-8.022,14.691-22.436,32.566-47.946,44.937
			c-4.368,2.119-6.191,7.376-4.074,11.743c1.519,3.133,4.652,4.956,7.915,4.956c1.287,0,2.594-0.284,3.829-0.882
			c31.035-15.052,47.971-37.25,57.04-54.844c0.66,0.04,3.334,0.04,3.999-0.001c8,15.564,19.104,28.99,33.088,39.951
			c19.916,15.612,45.065,25.606,74.814,29.757c8.821,25.611,18.209,49.359,27.948,70.611
			C682.783,359.226,682.86,363.409,681.336,367.085z"/>
	</g>
</g>
</svg>
