<?xml version="1.0" encoding="iso-8859-1"?>
<!-- Generator: Adobe Illustrator 21.0.0, SVG Export Plug-In . SVG Version: 6.00 Build 0)  -->
<svg version="1.1" id="Capa_1" xmlns="http://www.w3.org/2000/svg" xmlns:xlink="http://www.w3.org/1999/xlink" x="0px" y="0px"
	 viewBox="0 0 512.018 512.018" style="enable-background:new 0 0 512.018 512.018;" xml:space="preserve">
<g>
	<g>
		<g>
			<path d="M504.021,186.556L359.885,49.69c-4.738-4.514-11.035-7.027-17.579-7.014H230.4V8.542c0-4.713-3.82-8.533-8.533-8.533
				h-85.333c-4.713,0-8.533,3.82-8.533,8.533v34.133H42.667C19.114,42.704,0.028,61.79,0,85.342v247.467
				c0.028,23.552,19.114,42.638,42.667,42.667H128v128c0,4.713,3.82,8.533,8.533,8.533h85.333c4.713,0,8.533-3.82,8.533-8.533v-128
				h111.659c6.764-0.017,13.247-2.711,18.031-7.492L504.516,223.25c4.888-4.886,7.593-11.541,7.5-18.451
				S509.039,191.309,504.021,186.556z M145.067,17.076h68.267v25.6h-68.267V17.076z M213.333,494.943h-68.267V375.476h68.267
				V494.943z M492.433,211.192L348.006,355.977c-1.587,1.579-3.735,2.465-5.973,2.466H222.029c-0.06,0-0.102,0-0.162,0h-85.333
				c-0.06,0-0.102,0-0.162,0H42.667c-14.138,0-25.6-11.461-25.6-25.6V85.342c0-14.138,11.462-25.6,25.6-25.6h299.639
				c2.167-0.006,4.252,0.826,5.82,2.321L492.271,198.93c1.682,1.586,2.649,3.786,2.68,6.097S494.073,209.563,492.433,211.192z"/>
			<path d="M285.534,151.203l19.959-26.607c1.954-2.576,2.284-6.035,0.853-8.934L289.28,81.528c-1.453-2.907-4.43-4.737-7.68-4.719
				h-51.2c-3.234-0.001-6.192,1.826-7.637,4.719l-17.067,34.133c0,0.094-0.051,0.205-0.102,0.307s-0.137,0.444-0.222,0.666
				c-0.272,0.767-0.433,1.568-0.478,2.381c0,0.162-0.094,0.299-0.094,0.461s0.051,0.188,0.06,0.29
				c0.023,0.993,0.219,1.975,0.58,2.901c0.077,0.179,0.196,0.324,0.282,0.503c0.216,0.499,0.479,0.976,0.785,1.425l18.27,24.363
				c-10.164,2.895-19.791,7.417-28.51,13.389c-16.274-11.322-35.642-17.353-55.467-17.271c-42.218-0.058-79.741,26.892-93.17,66.917
				c-13.43,40.025,0.245,84.153,33.954,109.571c33.709,25.418,79.896,26.428,114.684,2.508
				c16.274,11.322,35.642,17.353,55.467,17.271c47.558,0.025,88.279-34.078,96.603-80.901
				C356.66,213.617,330.187,167.57,285.534,151.203z M235.674,93.876h40.653l12.348,24.747l-20.941,27.921
				c-5.284-0.927-10.635-1.418-16-1.468c-2.765,0-5.521,0.12-8.269,0.358L230.4,128.009H256c4.713,0,8.533-3.82,8.533-8.533
				s-3.82-8.533-8.533-8.533h-28.86L235.674,93.876z M140.8,324.276c-44.75-0.052-81.015-36.316-81.067-81.067
				c0.052-44.75,36.316-81.015,81.067-81.067c29.117,0.055,55.98,15.679,70.426,40.96c12.28,21.511,14.028,47.462,4.745,70.426
				c-7.249-8.434-11.214-19.198-11.17-30.319c-0.032-20.169-9.569-39.142-25.737-51.2c-0.256-0.196-0.555-0.333-0.853-0.521
				l-0.085-0.077h-0.068c-10.795-7.946-23.853-12.222-37.257-12.203c-35.346,0-64,28.654-64,64s28.654,64,64,64
				c10.662,0.01,21.151-2.692,30.481-7.851c3.328,4.759,7.081,9.206,11.213,13.286C169.93,320.283,155.503,324.307,140.8,324.276z
				 M162.918,284.51c-6.781,3.71-14.389,5.647-22.118,5.632c-25.921,0-46.933-21.013-46.933-46.933s21.013-46.933,46.933-46.933
				c7.729-0.015,15.338,1.922,22.118,5.632C150.494,228.04,150.494,258.378,162.918,284.51z M251.733,324.276
				c-29.117-0.055-55.98-15.679-70.426-40.96c-12.28-21.511-14.028-47.462-4.745-70.426c7.249,8.434,11.214,19.198,11.17,30.319
				c0.032,20.169,9.57,39.142,25.737,51.2c0.256,0.196,0.555,0.333,0.853,0.521l0.085,0.077h0.068
				c10.795,7.946,23.853,12.222,37.257,12.203c35.346,0,64-28.654,64-64s-28.654-64-64-64c-10.662-0.01-21.151,2.692-30.481,7.851
				c-3.328-4.759-7.081-9.206-11.213-13.286c12.564-7.638,26.991-11.662,41.694-11.631c44.772,0,81.067,36.295,81.067,81.067
				C332.8,287.981,296.505,324.276,251.733,324.276z M229.615,201.908c6.781-3.71,14.389-5.647,22.118-5.632
				c25.921,0,46.933,21.013,46.933,46.933s-21.013,46.933-46.933,46.933c-7.729,0.015-15.338-1.922-22.118-5.632
				C242.039,258.378,242.039,228.04,229.615,201.908z"/>
		</g>
	</g>
</g>
<g>
</g>
<g>
</g>
<g>
</g>
<g>
</g>
<g>
</g>
<g>
</g>
<g>
</g>
<g>
</g>
<g>
</g>
<g>
</g>
<g>
</g>
<g>
</g>
<g>
</g>
<g>
</g>
<g>
</g>
</svg>
