<?xml version="1.0" encoding="iso-8859-1"?>
<!-- Generator: Adobe Illustrator 19.0.0, SVG Export Plug-In . SVG Version: 6.00 Build 0)  -->
<svg version="1.1" id="Layer_1" xmlns="http://www.w3.org/2000/svg" xmlns:xlink="http://www.w3.org/1999/xlink" x="0px" y="0px"
	 viewBox="0 0 512.003 512.003" style="enable-background:new 0 0 512.003 512.003;" xml:space="preserve">
<g>
	<g>
		<circle cx="445.898" cy="121.713" r="27.095"/>
	</g>
</g>
<g>
	<g>
		<path d="M481.062,157.444H466.46l-10.008,26.147l-5.398,14.103l3.643-17.162c0.255-1.205,0.07-2.462-0.523-3.542l-5.003-9.099
			l4.447-8.09c0.663-1.205-0.21-2.684-1.586-2.684h-12.207c-1.374,0-2.25,1.477-1.586,2.684l4.448,8.09l-5.022,9.133
			c-0.582,1.06-0.773,2.29-0.538,3.475l3.185,17.194c-5.412-13.881-2.956-8.732-15.245-40.25h-14.326
			c-14.102,0-26.06,9.535-29.754,22.495c2.957,6.392,0.316,1.129,24.662,68.288l0.301-59.87c0.008-1.431,1.17-2.586,2.6-2.581
			c1.43,0.003,2.587,1.165,2.587,2.594v74.961c1.72,4.722,2.78,7.622,2.826,7.749c2.406,6.581,1.424,14.076-2.82,19.89v117.158
			c0,8.664,7.023,15.688,15.688,15.688c8.665,0,15.688-7.024,15.688-15.688V282.731h6.774v125.398
			c0,8.664,7.023,15.688,15.688,15.688s15.688-7.024,15.688-15.688c0-58.681-0.27-159.024-0.284-219.834
			c0-1.508,1.22-2.732,2.727-2.736c1.508-0.004,2.735,1.213,2.743,2.722l-0.088,96.046c-0.007,7.221,5.842,13.079,13.062,13.086
			c0.003,0,0.008,0,0.011,0c7.215,0,13.067-5.845,13.074-13.061l0.088-96.124C511.916,171.253,498.037,157.444,481.062,157.444z"/>
	</g>
</g>
<g>
	<g>
		<circle cx="86.519" cy="115.254" r="27.699"/>
	</g>
</g>
<g>
	<g>
		<path d="M120.46,281.591c0.068-13.643,0.433-86.095,0.494-98.296c0.045-8.944,3.039-17.21,8.051-23.879
			c-5.33-5.06-11.78-7.634-19.329-7.634c-20.092,0-26.243,0-46.305,0c-14.304,0-24.7,9.149-30.901,27.191
			c-9.61,27.964-31.432,87.668-31.652,88.267c-2.534,6.932,1.031,14.606,7.962,17.141c6.936,2.534,14.607-1.034,17.141-7.962
			c0.186-0.509,15.856-43.382,26.56-73.683c-0.718,5.871,1.532-6.392-18.982,99.522c-0.89,4.596,2.653,8.845,7.289,8.845
			c2.875,0,6.337,0,10.198,0v96.944c0,8.857,7.18,16.037,16.037,16.037c8.857,0,16.037-7.18,16.037-16.037v-96.944
			c2.306,0,4.618,0,6.924,0v96.944c0,8.857,7.18,16.037,16.037,16.037c8.857,0,16.037-7.18,16.037-16.037v-96.944
			c3.861,0,7.324,0,10.198,0c4.123,0,7.542-3.384,7.41-7.658C128.825,302.109,120.403,292.88,120.46,281.591z"/>
	</g>
</g>
<g>
	<g>
		<path d="M364.17,121.353c-3.846-18.95-20.673-32.704-40.009-32.704c-19.336,0-36.162,13.754-40.009,32.704l-9.505,46.823
			c3.439-4.099,7.166-6.977,10.94-8.957l7.327-36.087c3.004-14.8,16.147-25.544,31.248-25.544c15.103,0,28.245,10.742,31.25,25.544
			l7.325,36.087c3.773,1.981,7.501,4.858,10.94,8.957L364.17,121.353z"/>
	</g>
</g>
<g>
	<g>
		<path d="M312.265,163.811c1.411,5.403,6.28,9.205,11.896,9.205c5.712,0,10.515-3.919,11.896-9.205
			C328.878,163.811,319.311,163.811,312.265,163.811z"/>
	</g>
</g>
<g>
	<g>
		<path d="M405.586,272.982c-7.597-20.8-22.633-62.259-29.836-83.218c-5.043-14.674-13.97-25.952-29.493-25.952h-2.963
			c-1.493,9.228-9.493,16.305-19.135,16.305c-9.39,0-17.609-6.87-19.135-16.305h-2.962c-15.553,0-24.476,11.358-29.493,25.952
			c-2.359,6.864-5.348,15.317-7.773,22.13c-0.051-10.128-0.117-23.343-0.144-28.556c-0.087-17.372-14.292-31.504-31.663-31.504
			h-11.814c-13.166,35.17-23.497,62.768-24.101,64.382c-3.072-8.207-21.336-56.995-24.101-64.382h-11.814
			c-17.372,0-31.575,14.133-31.663,31.504l-0.494,98.296c-0.037,7.389,5.923,13.409,13.312,13.447c0.023,0,0.046,0,0.069,0
			c7.358,0,13.341-5.947,13.378-13.312l0.494-98.296c0.008-1.485,1.215-2.683,2.7-2.678c1.484,0.004,2.684,1.209,2.684,2.693
			c-0.009,47.322-0.142,122.922-0.142,224.905c0,8.867,7.188,16.055,16.055,16.055s16.056-7.188,16.056-16.055V280.056h6.933
			v128.335c0,8.867,7.188,16.055,16.056,16.055c8.867,0,16.055-7.188,16.055-16.055c0-211.982-0.139-90.374-0.142-224.906
			c0-1.484,1.2-2.687,2.684-2.692c1.484-0.005,2.692,1.194,2.7,2.678l0.386,76.85l0.108,21.447
			c0.037,7.367,6.019,13.312,13.378,13.312c0.022,0,0.046,0,0.069,0c5.728-0.029,9.801-4.022,12.466-8.728
			c1.082-1.911,12.366-31.819,25.099-67.505l2.897,7.556c-10.944,18.087-18.136,37.855-21.394,58.832
			c-1.75,11.269-13.445,86.568-14.684,94.549c-1.805,11.625,7.215,22.095,18.918,22.095h15.106v6.511
			c0,8.453,6.852,15.306,15.306,15.306c8.453,0,15.307-6.852,15.307-15.306v-6.511h6.609v6.511c0,8.453,6.852,15.306,15.307,15.306
			c8.453,0,15.306-6.852,15.306-15.306v-6.511h15.106c11.733,0,20.723-10.472,18.918-22.095
			c-1.656-10.663-13.027-83.875-14.684-94.549c-3.258-20.978-10.449-40.746-21.394-58.832l2.898-7.557
			c7.24,20.361,17.153,47.712,23.015,63.742c0.036,0.097,0.059,0.162,0.065,0.177c2.407,6.574,9.714,10.032,16.36,7.599
			C404.214,288.224,408.773,281.708,405.586,272.982z M224.82,196.369h-12.419v-5.836h12.419V196.369z M300.659,199.897
			c2.628-2.707,6.298-4.395,10.37-4.395c4.069,0,7.737,1.688,10.362,4.395c1.136,1.171,2.078,2.53,2.77,4.03
			c0.692-1.5,1.634-2.859,2.77-4.03c2.625-2.707,6.291-4.395,10.362-4.395c4.072,0,7.742,1.689,10.37,4.395
			c3.475,3.58,4.547,8.855,2.744,13.506l-4.078,10.524h-44.332l-4.078-10.524C296.112,208.751,297.184,203.475,300.659,199.897z
			 M367.593,286.762l14.684,94.549c0.87,5.606-3.469,10.628-9.095,10.628c-22.743,0-75.291,0-98.046,0
			c-5.604,0-9.965-5.028-9.095-10.628l14.684-94.549c2.898-18.663,9.256-36.597,18.714-52.896h49.44
			C358.337,250.165,364.694,268.099,367.593,286.762z"/>
	</g>
</g>
<g>
	<g>
		<path d="M324.16,102.515c-14.6,0-26.435,11.835-26.435,26.435c0,14.645,11.906,26.435,26.435,26.435
			c14.524,0,26.435-11.783,26.435-26.435C350.595,114.35,338.76,102.515,324.16,102.515z"/>
	</g>
</g>
<g>
	<g>
		<path d="M207.544,145.389c-0.001,0.001-0.003,0.001-0.006,0.002l-10.462,5.753l-10.462-5.753
			c-0.001-0.001-0.003-0.001-0.006-0.002c-1.294-0.705-2.875,0.233-2.875,1.706c0,1.838,0,12.024,0,13.104
			c0,1.475,1.586,2.415,2.88,1.703l10.462-5.753l10.462,5.753c1.294,0.711,2.881-0.225,2.881-1.703c0-1.08,0-11.264,0-13.104
			C210.42,145.615,208.833,144.687,207.544,145.389z"/>
	</g>
</g>
<g>
	<g>
		<circle cx="197.075" cy="170.471" r="3.648"/>
	</g>
</g>
<g>
	<g>
		<circle cx="197.075" cy="187.973" r="3.648"/>
	</g>
</g>
<g>
	<g>
		<circle cx="197.075" cy="115.254" r="27.028"/>
	</g>
</g>
<g>
</g>
<g>
</g>
<g>
</g>
<g>
</g>
<g>
</g>
<g>
</g>
<g>
</g>
<g>
</g>
<g>
</g>
<g>
</g>
<g>
</g>
<g>
</g>
<g>
</g>
<g>
</g>
<g>
</g>
</svg>
